# xmcd
#
# Track frame offsets: 
#        150
#        22170
#        37810
#        59850
#        77342
#        91707
#        111602
#        132657
#        153327
#        175407
#        192475
#        214271
#        232176
#        254440
#        271598
#        295611
#
# Disc length: 4181 seconds
#
# Revision: 0
# Processed by: cddbd v1.5.1PL2 Copyright (c) Steve Scherf et al.
# Submitted via: ExactAudioCopy v0.95a5
#
DISCID=eb105310
DTITLE=满文军 - 我需要你
DYEAR=2004
DGENRE=
TTITLE0=我需要你
TTITLE1=美丽的你
TTITLE2=故事
TTITLE3=爱过你
TTITLE4=最可靠的朋友
TTITLE5=这一颗心
TTITLE6=你不要回忆
TTITLE7=今生今世
TTITLE8=没有你的城市
TTITLE9=桃花深处
TTITLE10=闻笛
TTITLE11=望乡
TTITLE12=让你幸福在每一天
TTITLE13=为爱而生
TTITLE14=牵心
TTITLE15=离家
EXTD=
EXTT0=
EXTT1=
EXTT2=
EXTT3=
EXTT4=
EXTT5=
EXTT6=
EXTT7=
EXTT8=
EXTT9=
EXTT10=
EXTT11=
EXTT12=
EXTT13=
EXTT14=
EXTT15=
PLAYORDER=
